<mxfile host="app.diagrams.net" agent="Mozilla/5.0 (Macintosh; Intel Mac OS X 10_15_7) AppleWebKit/605.1.15 (KHTML, like Gecko) Version/18.0 Safari/605.1.15" version="24.7.16">
  <diagram name="Page-1" id="oIQCYcAkjapNhuyonoHC">
    <mxGraphModel dx="2093" dy="668" grid="1" gridSize="10" guides="1" tooltips="1" connect="1" arrows="1" fold="1" page="1" pageScale="1" pageWidth="827" pageHeight="1169" math="0" shadow="0">
      <root>
        <mxCell id="0" />
        <mxCell id="1" parent="0" />
        <mxCell id="VlfslOi_pk2Tpa9odCXj-2" value="Isarbruegge" style="whiteSpace=wrap;html=1;aspect=fixed;verticalAlign=bottom;" parent="1" vertex="1">
          <mxGeometry x="-50" y="150" width="390" height="390" as="geometry" />
        </mxCell>
        <mxCell id="VlfslOi_pk2Tpa9odCXj-3" value="Regnitzbruegge" style="whiteSpace=wrap;html=1;aspect=fixed;verticalAlign=bottom;" parent="1" vertex="1">
          <mxGeometry x="470" y="150" width="390" height="390" as="geometry" />
        </mxCell>
        <mxCell id="wGfyhFML8JZu33JSCEhS-13" style="edgeStyle=orthogonalEdgeStyle;rounded=0;orthogonalLoop=1;jettySize=auto;html=1;entryX=0.5;entryY=1;entryDx=0;entryDy=0;exitX=0;exitY=0.75;exitDx=0;exitDy=0;" edge="1" parent="1" source="VlfslOi_pk2Tpa9odCXj-4" target="wGfyhFML8JZu33JSCEhS-7">
          <mxGeometry relative="1" as="geometry" />
        </mxCell>
        <mxCell id="VlfslOi_pk2Tpa9odCXj-4" value="Flow Creator Fake PLC" style="rounded=0;whiteSpace=wrap;html=1;" parent="1" vertex="1">
          <mxGeometry x="90" y="440" width="120" height="60" as="geometry" />
        </mxCell>
        <mxCell id="VlfslOi_pk2Tpa9odCXj-5" value="OPC UA Connector" style="rounded=0;whiteSpace=wrap;html=1;" parent="1" vertex="1">
          <mxGeometry x="542" y="440" width="120" height="60" as="geometry" />
        </mxCell>
        <mxCell id="VlfslOi_pk2Tpa9odCXj-6" value="Databus" style="rounded=0;whiteSpace=wrap;html=1;" parent="1" vertex="1">
          <mxGeometry x="542" y="350" width="120" height="60" as="geometry" />
        </mxCell>
        <mxCell id="VlfslOi_pk2Tpa9odCXj-7" value="OPC UA Server" style="rounded=0;whiteSpace=wrap;html=1;" parent="1" vertex="1">
          <mxGeometry x="90" y="350" width="120" height="60" as="geometry" />
        </mxCell>
        <mxCell id="VlfslOi_pk2Tpa9odCXj-9" value="" style="endArrow=classic;html=1;rounded=0;exitX=0.5;exitY=0;exitDx=0;exitDy=0;entryX=0;entryY=0.5;entryDx=0;entryDy=0;" parent="1" source="wGfyhFML8JZu33JSCEhS-7" target="VlfslOi_pk2Tpa9odCXj-7" edge="1">
          <mxGeometry width="50" height="50" relative="1" as="geometry">
            <mxPoint x="390" y="320" as="sourcePoint" />
            <mxPoint x="440" y="270" as="targetPoint" />
            <Array as="points">
              <mxPoint x="20" y="380" />
            </Array>
          </mxGeometry>
        </mxCell>
        <mxCell id="VlfslOi_pk2Tpa9odCXj-10" value="" style="endArrow=classic;html=1;rounded=0;exitX=1;exitY=0.5;exitDx=0;exitDy=0;entryX=0;entryY=0.5;entryDx=0;entryDy=0;" parent="1" source="VlfslOi_pk2Tpa9odCXj-7" target="VlfslOi_pk2Tpa9odCXj-5" edge="1">
          <mxGeometry width="50" height="50" relative="1" as="geometry">
            <mxPoint x="390" y="320" as="sourcePoint" />
            <mxPoint x="440" y="270" as="targetPoint" />
          </mxGeometry>
        </mxCell>
        <mxCell id="VlfslOi_pk2Tpa9odCXj-11" value="" style="endArrow=classic;html=1;rounded=0;exitX=0.5;exitY=0;exitDx=0;exitDy=0;entryX=0.5;entryY=1;entryDx=0;entryDy=0;" parent="1" source="VlfslOi_pk2Tpa9odCXj-5" target="VlfslOi_pk2Tpa9odCXj-6" edge="1">
          <mxGeometry width="50" height="50" relative="1" as="geometry">
            <mxPoint x="157" y="400" as="sourcePoint" />
            <mxPoint x="552" y="480" as="targetPoint" />
          </mxGeometry>
        </mxCell>
        <mxCell id="VlfslOi_pk2Tpa9odCXj-14" value="External Databus" style="rounded=0;whiteSpace=wrap;html=1;" parent="1" vertex="1">
          <mxGeometry x="542" y="260" width="120" height="60" as="geometry" />
        </mxCell>
        <mxCell id="VlfslOi_pk2Tpa9odCXj-15" value="Cloud Connector" style="rounded=0;whiteSpace=wrap;html=1;" parent="1" vertex="1">
          <mxGeometry x="-60" y="180" width="120" height="60" as="geometry" />
        </mxCell>
        <mxCell id="VlfslOi_pk2Tpa9odCXj-16" value="AWS" style="rounded=0;whiteSpace=wrap;html=1;" parent="1" vertex="1">
          <mxGeometry x="-30" y="60" width="360" height="50" as="geometry" />
        </mxCell>
        <mxCell id="VlfslOi_pk2Tpa9odCXj-32" value="" style="endArrow=classic;html=1;rounded=0;exitX=0.5;exitY=0;exitDx=0;exitDy=0;" parent="1" source="VlfslOi_pk2Tpa9odCXj-6" target="VlfslOi_pk2Tpa9odCXj-14" edge="1">
          <mxGeometry width="50" height="50" relative="1" as="geometry">
            <mxPoint x="612" y="450" as="sourcePoint" />
            <mxPoint x="612" y="430" as="targetPoint" />
          </mxGeometry>
        </mxCell>
        <mxCell id="VlfslOi_pk2Tpa9odCXj-34" value="" style="endArrow=classic;html=1;rounded=0;exitX=0;exitY=0.5;exitDx=0;exitDy=0;entryX=1;entryY=0.5;entryDx=0;entryDy=0;" parent="1" source="VlfslOi_pk2Tpa9odCXj-14" target="wGfyhFML8JZu33JSCEhS-1" edge="1">
          <mxGeometry width="50" height="50" relative="1" as="geometry">
            <mxPoint x="735" y="320" as="sourcePoint" />
            <mxPoint x="1112" y="214" as="targetPoint" />
          </mxGeometry>
        </mxCell>
        <mxCell id="VlfslOi_pk2Tpa9odCXj-35" value="Common Configurator" style="rounded=0;whiteSpace=wrap;html=1;" parent="1" vertex="1">
          <mxGeometry x="720" y="440" width="120" height="60" as="geometry" />
        </mxCell>
        <mxCell id="VlfslOi_pk2Tpa9odCXj-38" value="IEM Data Connections" style="rounded=0;whiteSpace=wrap;html=1;" parent="1" vertex="1">
          <mxGeometry x="880" y="280" width="120" height="60" as="geometry" />
        </mxCell>
        <mxCell id="VlfslOi_pk2Tpa9odCXj-39" value="" style="endArrow=none;dashed=1;html=1;rounded=0;entryX=0;entryY=0.5;entryDx=0;entryDy=0;exitX=1;exitY=0.5;exitDx=0;exitDy=0;" parent="1" source="VlfslOi_pk2Tpa9odCXj-6" target="VlfslOi_pk2Tpa9odCXj-38" edge="1">
          <mxGeometry width="50" height="50" relative="1" as="geometry">
            <mxPoint x="467" y="470" as="sourcePoint" />
            <mxPoint x="827" y="345" as="targetPoint" />
          </mxGeometry>
        </mxCell>
        <mxCell id="VlfslOi_pk2Tpa9odCXj-40" value="" style="endArrow=none;dashed=1;html=1;rounded=0;entryX=0;entryY=0.5;entryDx=0;entryDy=0;exitX=1;exitY=0.5;exitDx=0;exitDy=0;" parent="1" source="VlfslOi_pk2Tpa9odCXj-14" target="VlfslOi_pk2Tpa9odCXj-38" edge="1">
          <mxGeometry width="50" height="50" relative="1" as="geometry">
            <mxPoint x="672" y="400" as="sourcePoint" />
            <mxPoint x="827" y="345" as="targetPoint" />
          </mxGeometry>
        </mxCell>
        <mxCell id="VlfslOi_pk2Tpa9odCXj-42" value="" style="endArrow=none;dashed=1;html=1;rounded=0;entryX=0;entryY=0.5;entryDx=0;entryDy=0;exitX=1;exitY=0.25;exitDx=0;exitDy=0;" parent="1" source="VlfslOi_pk2Tpa9odCXj-5" target="VlfslOi_pk2Tpa9odCXj-38" edge="1">
          <mxGeometry width="50" height="50" relative="1" as="geometry">
            <mxPoint x="672" y="400" as="sourcePoint" />
            <mxPoint x="900" y="355" as="targetPoint" />
          </mxGeometry>
        </mxCell>
        <mxCell id="VlfslOi_pk2Tpa9odCXj-43" value="" style="endArrow=none;dashed=1;html=1;rounded=0;exitX=1;exitY=0.5;exitDx=0;exitDy=0;" parent="1" source="VlfslOi_pk2Tpa9odCXj-5" target="VlfslOi_pk2Tpa9odCXj-35" edge="1">
          <mxGeometry width="50" height="50" relative="1" as="geometry">
            <mxPoint x="672" y="465" as="sourcePoint" />
            <mxPoint x="900" y="355" as="targetPoint" />
          </mxGeometry>
        </mxCell>
        <mxCell id="wGfyhFML8JZu33JSCEhS-1" value="External Databus" style="rounded=0;whiteSpace=wrap;html=1;" vertex="1" parent="1">
          <mxGeometry x="90" y="260" width="120" height="60" as="geometry" />
        </mxCell>
        <mxCell id="wGfyhFML8JZu33JSCEhS-2" value="" style="endArrow=classic;html=1;rounded=0;exitX=0.5;exitY=0;exitDx=0;exitDy=0;entryX=0.5;entryY=1;entryDx=0;entryDy=0;" edge="1" parent="1" source="wGfyhFML8JZu33JSCEhS-1" target="wGfyhFML8JZu33JSCEhS-4">
          <mxGeometry width="50" height="50" relative="1" as="geometry">
            <mxPoint x="552" y="320" as="sourcePoint" />
            <mxPoint x="220" y="300" as="targetPoint" />
          </mxGeometry>
        </mxCell>
        <mxCell id="wGfyhFML8JZu33JSCEhS-3" value="" style="endArrow=classic;html=1;rounded=0;exitX=0.5;exitY=0;exitDx=0;exitDy=0;entryX=0.483;entryY=0.92;entryDx=0;entryDy=0;entryPerimeter=0;" edge="1" parent="1" source="VlfslOi_pk2Tpa9odCXj-15" target="VlfslOi_pk2Tpa9odCXj-16">
          <mxGeometry width="50" height="50" relative="1" as="geometry">
            <mxPoint x="562" y="330" as="sourcePoint" />
            <mxPoint x="230" y="310" as="targetPoint" />
          </mxGeometry>
        </mxCell>
        <mxCell id="wGfyhFML8JZu33JSCEhS-14" value="" style="edgeStyle=orthogonalEdgeStyle;rounded=0;orthogonalLoop=1;jettySize=auto;html=1;" edge="1" parent="1" source="wGfyhFML8JZu33JSCEhS-4" target="VlfslOi_pk2Tpa9odCXj-15">
          <mxGeometry relative="1" as="geometry" />
        </mxCell>
        <mxCell id="wGfyhFML8JZu33JSCEhS-4" value="Databus" style="rounded=0;whiteSpace=wrap;html=1;" vertex="1" parent="1">
          <mxGeometry x="90" y="180" width="120" height="60" as="geometry" />
        </mxCell>
        <mxCell id="wGfyhFML8JZu33JSCEhS-7" value="Databus" style="rounded=0;whiteSpace=wrap;html=1;" vertex="1" parent="1">
          <mxGeometry x="-40" y="400" width="120" height="60" as="geometry" />
        </mxCell>
        <mxCell id="wGfyhFML8JZu33JSCEhS-16" value="Isarbruegge" style="whiteSpace=wrap;html=1;aspect=fixed;verticalAlign=bottom;" vertex="1" parent="1">
          <mxGeometry x="-40" y="779" width="390" height="390" as="geometry" />
        </mxCell>
        <mxCell id="wGfyhFML8JZu33JSCEhS-17" value="Regnitzbruegge" style="whiteSpace=wrap;html=1;aspect=fixed;verticalAlign=bottom;" vertex="1" parent="1">
          <mxGeometry x="480" y="779" width="390" height="390" as="geometry" />
        </mxCell>
        <mxCell id="wGfyhFML8JZu33JSCEhS-18" style="edgeStyle=orthogonalEdgeStyle;rounded=0;orthogonalLoop=1;jettySize=auto;html=1;entryX=0.5;entryY=1;entryDx=0;entryDy=0;exitX=0;exitY=0.75;exitDx=0;exitDy=0;" edge="1" parent="1" source="wGfyhFML8JZu33JSCEhS-19" target="wGfyhFML8JZu33JSCEhS-42">
          <mxGeometry relative="1" as="geometry" />
        </mxCell>
        <mxCell id="wGfyhFML8JZu33JSCEhS-19" value="Flow Creator Fake PLC" style="rounded=0;whiteSpace=wrap;html=1;" vertex="1" parent="1">
          <mxGeometry x="155" y="1069" width="120" height="60" as="geometry" />
        </mxCell>
        <mxCell id="wGfyhFML8JZu33JSCEhS-20" value="OPC UA Connector" style="rounded=0;whiteSpace=wrap;html=1;" vertex="1" parent="1">
          <mxGeometry x="552" y="1069" width="120" height="60" as="geometry" />
        </mxCell>
        <mxCell id="wGfyhFML8JZu33JSCEhS-21" value="Databus" style="rounded=0;whiteSpace=wrap;html=1;" vertex="1" parent="1">
          <mxGeometry x="552" y="979" width="120" height="60" as="geometry" />
        </mxCell>
        <mxCell id="wGfyhFML8JZu33JSCEhS-22" value="OPC UA Server" style="rounded=0;whiteSpace=wrap;html=1;" vertex="1" parent="1">
          <mxGeometry x="155" y="989" width="120" height="60" as="geometry" />
        </mxCell>
        <mxCell id="wGfyhFML8JZu33JSCEhS-23" value="" style="endArrow=classic;html=1;rounded=0;exitX=0.5;exitY=0;exitDx=0;exitDy=0;entryX=0;entryY=0.5;entryDx=0;entryDy=0;" edge="1" parent="1" source="wGfyhFML8JZu33JSCEhS-42" target="wGfyhFML8JZu33JSCEhS-22">
          <mxGeometry width="50" height="50" relative="1" as="geometry">
            <mxPoint x="455" y="949" as="sourcePoint" />
            <mxPoint x="505" y="899" as="targetPoint" />
            <Array as="points">
              <mxPoint x="60" y="1020" />
            </Array>
          </mxGeometry>
        </mxCell>
        <mxCell id="wGfyhFML8JZu33JSCEhS-24" value="" style="endArrow=classic;html=1;rounded=0;exitX=1;exitY=0.5;exitDx=0;exitDy=0;entryX=0;entryY=0.5;entryDx=0;entryDy=0;" edge="1" parent="1" source="wGfyhFML8JZu33JSCEhS-22" target="wGfyhFML8JZu33JSCEhS-20">
          <mxGeometry width="50" height="50" relative="1" as="geometry">
            <mxPoint x="400" y="949" as="sourcePoint" />
            <mxPoint x="450" y="899" as="targetPoint" />
            <Array as="points">
              <mxPoint x="410" y="1019" />
              <mxPoint x="410" y="1099" />
            </Array>
          </mxGeometry>
        </mxCell>
        <mxCell id="wGfyhFML8JZu33JSCEhS-25" value="" style="endArrow=classic;html=1;rounded=0;exitX=0.5;exitY=0;exitDx=0;exitDy=0;entryX=0.5;entryY=1;entryDx=0;entryDy=0;" edge="1" parent="1" source="wGfyhFML8JZu33JSCEhS-20" target="wGfyhFML8JZu33JSCEhS-21">
          <mxGeometry width="50" height="50" relative="1" as="geometry">
            <mxPoint x="167" y="1029" as="sourcePoint" />
            <mxPoint x="562" y="1109" as="targetPoint" />
          </mxGeometry>
        </mxCell>
        <mxCell id="wGfyhFML8JZu33JSCEhS-26" value="DataXess" style="rounded=0;whiteSpace=wrap;html=1;" vertex="1" parent="1">
          <mxGeometry x="552" y="889" width="120" height="60" as="geometry" />
        </mxCell>
        <mxCell id="wGfyhFML8JZu33JSCEhS-27" value="Cloud Connector" style="rounded=0;whiteSpace=wrap;html=1;" vertex="1" parent="1">
          <mxGeometry y="809" width="120" height="60" as="geometry" />
        </mxCell>
        <mxCell id="wGfyhFML8JZu33JSCEhS-28" value="AWS" style="rounded=0;whiteSpace=wrap;html=1;" vertex="1" parent="1">
          <mxGeometry x="-20" y="689" width="360" height="50" as="geometry" />
        </mxCell>
        <mxCell id="wGfyhFML8JZu33JSCEhS-29" value="" style="endArrow=classic;html=1;rounded=0;exitX=0.5;exitY=0;exitDx=0;exitDy=0;" edge="1" parent="1" source="wGfyhFML8JZu33JSCEhS-21" target="wGfyhFML8JZu33JSCEhS-26">
          <mxGeometry width="50" height="50" relative="1" as="geometry">
            <mxPoint x="622" y="1079" as="sourcePoint" />
            <mxPoint x="622" y="1059" as="targetPoint" />
          </mxGeometry>
        </mxCell>
        <mxCell id="wGfyhFML8JZu33JSCEhS-30" value="" style="endArrow=classic;html=1;rounded=0;exitX=0;exitY=0.5;exitDx=0;exitDy=0;entryX=1;entryY=0.5;entryDx=0;entryDy=0;" edge="1" parent="1" source="wGfyhFML8JZu33JSCEhS-26" target="wGfyhFML8JZu33JSCEhS-37">
          <mxGeometry width="50" height="50" relative="1" as="geometry">
            <mxPoint x="745" y="949" as="sourcePoint" />
            <mxPoint x="1122" y="843" as="targetPoint" />
          </mxGeometry>
        </mxCell>
        <mxCell id="wGfyhFML8JZu33JSCEhS-31" value="Common Configurator" style="rounded=0;whiteSpace=wrap;html=1;" vertex="1" parent="1">
          <mxGeometry x="730" y="1069" width="120" height="60" as="geometry" />
        </mxCell>
        <mxCell id="wGfyhFML8JZu33JSCEhS-32" value="IEM Data Connections" style="rounded=0;whiteSpace=wrap;html=1;" vertex="1" parent="1">
          <mxGeometry x="900" y="889" width="120" height="60" as="geometry" />
        </mxCell>
        <mxCell id="wGfyhFML8JZu33JSCEhS-33" value="" style="endArrow=none;dashed=1;html=1;rounded=0;entryX=0;entryY=0.5;entryDx=0;entryDy=0;exitX=1;exitY=0.5;exitDx=0;exitDy=0;edgeStyle=orthogonalEdgeStyle;" edge="1" parent="1" source="wGfyhFML8JZu33JSCEhS-21" target="wGfyhFML8JZu33JSCEhS-32">
          <mxGeometry width="50" height="50" relative="1" as="geometry">
            <mxPoint x="477" y="1099" as="sourcePoint" />
            <mxPoint x="837" y="974" as="targetPoint" />
            <Array as="points">
              <mxPoint x="710" y="1009" />
              <mxPoint x="710" y="919" />
            </Array>
          </mxGeometry>
        </mxCell>
        <mxCell id="wGfyhFML8JZu33JSCEhS-34" value="" style="endArrow=none;dashed=1;html=1;rounded=0;entryX=0;entryY=0.5;entryDx=0;entryDy=0;exitX=1;exitY=0.5;exitDx=0;exitDy=0;" edge="1" parent="1" source="wGfyhFML8JZu33JSCEhS-26" target="wGfyhFML8JZu33JSCEhS-32">
          <mxGeometry width="50" height="50" relative="1" as="geometry">
            <mxPoint x="682" y="1029" as="sourcePoint" />
            <mxPoint x="837" y="974" as="targetPoint" />
          </mxGeometry>
        </mxCell>
        <mxCell id="wGfyhFML8JZu33JSCEhS-35" value="" style="endArrow=none;dashed=1;html=1;rounded=0;entryX=0;entryY=0.5;entryDx=0;entryDy=0;exitX=1;exitY=0.25;exitDx=0;exitDy=0;" edge="1" parent="1" source="wGfyhFML8JZu33JSCEhS-20" target="wGfyhFML8JZu33JSCEhS-32">
          <mxGeometry width="50" height="50" relative="1" as="geometry">
            <mxPoint x="682" y="1029" as="sourcePoint" />
            <mxPoint x="910" y="984" as="targetPoint" />
            <Array as="points">
              <mxPoint x="710" y="1084" />
              <mxPoint x="710" y="919" />
            </Array>
          </mxGeometry>
        </mxCell>
        <mxCell id="wGfyhFML8JZu33JSCEhS-36" value="" style="endArrow=none;dashed=1;html=1;rounded=0;exitX=1;exitY=0.5;exitDx=0;exitDy=0;" edge="1" parent="1" source="wGfyhFML8JZu33JSCEhS-20" target="wGfyhFML8JZu33JSCEhS-31">
          <mxGeometry width="50" height="50" relative="1" as="geometry">
            <mxPoint x="682" y="1094" as="sourcePoint" />
            <mxPoint x="910" y="984" as="targetPoint" />
          </mxGeometry>
        </mxCell>
        <mxCell id="wGfyhFML8JZu33JSCEhS-37" value="DataXess" style="rounded=0;whiteSpace=wrap;html=1;" vertex="1" parent="1">
          <mxGeometry x="155" y="889" width="120" height="60" as="geometry" />
        </mxCell>
        <mxCell id="wGfyhFML8JZu33JSCEhS-38" value="" style="endArrow=classic;html=1;rounded=0;exitX=0.5;exitY=0;exitDx=0;exitDy=0;entryX=0.5;entryY=1;entryDx=0;entryDy=0;" edge="1" parent="1" source="wGfyhFML8JZu33JSCEhS-37" target="wGfyhFML8JZu33JSCEhS-41">
          <mxGeometry width="50" height="50" relative="1" as="geometry">
            <mxPoint x="617" y="949" as="sourcePoint" />
            <mxPoint x="285" y="929" as="targetPoint" />
          </mxGeometry>
        </mxCell>
        <mxCell id="wGfyhFML8JZu33JSCEhS-39" value="" style="endArrow=classic;html=1;rounded=0;exitX=0.5;exitY=0;exitDx=0;exitDy=0;entryX=0.483;entryY=0.92;entryDx=0;entryDy=0;entryPerimeter=0;" edge="1" parent="1" source="wGfyhFML8JZu33JSCEhS-27" target="wGfyhFML8JZu33JSCEhS-28">
          <mxGeometry width="50" height="50" relative="1" as="geometry">
            <mxPoint x="572" y="959" as="sourcePoint" />
            <mxPoint x="240" y="939" as="targetPoint" />
            <Array as="points">
              <mxPoint x="60" y="770" />
              <mxPoint x="154" y="770" />
            </Array>
          </mxGeometry>
        </mxCell>
        <mxCell id="wGfyhFML8JZu33JSCEhS-40" value="" style="edgeStyle=orthogonalEdgeStyle;rounded=0;orthogonalLoop=1;jettySize=auto;html=1;" edge="1" parent="1" source="wGfyhFML8JZu33JSCEhS-41" target="wGfyhFML8JZu33JSCEhS-27">
          <mxGeometry relative="1" as="geometry" />
        </mxCell>
        <mxCell id="wGfyhFML8JZu33JSCEhS-41" value="Databus" style="rounded=0;whiteSpace=wrap;html=1;" vertex="1" parent="1">
          <mxGeometry x="155" y="809" width="120" height="60" as="geometry" />
        </mxCell>
        <mxCell id="wGfyhFML8JZu33JSCEhS-42" value="Databus" style="rounded=0;whiteSpace=wrap;html=1;" vertex="1" parent="1">
          <mxGeometry y="1029" width="120" height="60" as="geometry" />
        </mxCell>
      </root>
    </mxGraphModel>
  </diagram>
</mxfile>
